<svg width="27" height="24" viewBox="0 0 27 24" fill="none" xmlns="http://www.w3.org/2000/svg">
<path d="M10.3591 5.97639C12.0418 5.97639 13.4059 4.63853 13.4059 2.98819C13.4059 1.33786 12.0418 0 10.3591 0C8.67638 0 7.31229 1.33786 7.31229 2.98819C7.31229 4.63853 8.67638 5.97639 10.3591 5.97639Z" fill="#0D0D0D"/>
<path d="M3.04679 16.0615C4.72948 16.0615 6.09357 17.3994 6.09357 19.0497V20.7681C6.09357 21.3716 5.91111 21.9334 5.59733 22.4033C5.05316 23.218 4.11406 23.7563 3.04679 23.7563C1.97951 23.7563 1.04041 23.218 0.496247 22.4033C0.182464 21.9334 0 21.3716 0 20.7681V19.0497V16.1219V14.8059C0.252582 15.0587 0.537611 15.2802 0.848477 15.4639C1.49046 15.8433 2.24264 16.0615 3.04679 16.0615Z" fill="#0D0D0D"/>
<path d="M10.36 23.7563C8.67731 23.7563 7.31229 22.4184 7.31229 20.7681V19.0497C7.31229 17.9099 6.84746 16.8765 6.09357 16.1219C5.84099 15.8691 5.55596 15.6476 5.2451 15.4639C4.60311 15.0845 3.85094 14.8663 3.04679 14.8663C1.36409 14.8663 0 13.5284 0 11.8781C0 10.2277 1.36409 8.88988 3.04679 8.88988C4.10714 8.88988 5.13027 9.04613 6.09357 9.33643C6.2456 9.38225 6.39614 9.4314 6.54509 9.48381C6.80582 9.57554 7.06171 9.67723 7.31229 9.78842C10.9057 11.3829 13.4059 14.93 13.4059 19.0497V20.7681C13.4059 21.4699 13.1592 22.1151 12.7462 22.6251C12.223 23.2712 11.4328 23.7 10.5391 23.7511C10.5373 23.7511 10.496 23.7523 10.4534 23.7536L10.4508 23.7536C10.4272 23.7543 10.4035 23.755 10.3861 23.7555L10.3664 23.7561L10.3619 23.7562L10.36 23.7563Z" fill="#0D0D0D"/>
<path d="M3.04679 0C1.36409 0 0 1.33786 0 2.98819V8.11161V8.95025C0.671931 8.27774 1.57349 7.82675 2.58024 7.71934C2.73346 7.70299 2.88913 7.6946 3.04679 7.6946C3.19842 7.6946 3.3482 7.70236 3.49574 7.7175C4.39146 7.74989 5.26116 7.88221 6.09357 8.10343V2.98819C6.09357 1.33786 4.72948 0 3.04679 0Z" fill="#0D0D0D"/>
<path d="M20.3062 22.7991C20.1106 23.0955 19.8495 23.3307 19.5265 23.5035L19.5252 23.5041L19.524 23.5049C19.1986 23.6732 18.842 23.7562 18.458 23.7562C18.0284 23.7562 17.6389 23.6688 17.2951 23.4886L17.2939 23.488L17.2926 23.4873C16.9529 23.3035 16.6828 23.054 16.4869 22.7396L16.4861 22.7383C16.2893 22.4166 16.1921 22.0578 16.1921 21.6672C16.1921 21.5061 16.2398 21.3554 16.3523 21.2366L16.3526 21.2362C16.4635 21.1197 16.6057 21.053 16.7703 21.053C16.9374 21.053 17.0835 21.1178 17.1932 21.2418C17.3023 21.3599 17.3485 21.5084 17.3485 21.6672C17.3485 21.8435 17.3938 22.0048 17.4852 22.155L17.5217 22.2091C17.6101 22.3319 17.7241 22.434 17.8663 22.5157C18.0237 22.601 18.2033 22.6455 18.41 22.6455C18.7222 22.6455 18.9506 22.563 19.117 22.4162L19.1472 22.3879C19.294 22.2429 19.3755 22.0419 19.3755 21.7614C19.3755 21.5721 19.3344 21.4105 19.2572 21.2717L19.2566 21.2706L19.256 21.2694C19.1761 21.1215 19.0696 21.0072 18.9359 20.9226C18.8065 20.8408 18.6599 20.7987 18.49 20.7987C18.3192 20.7987 18.1664 20.7393 18.0454 20.6207L18.0429 20.6182L18.0403 20.6156C17.9265 20.496 17.8718 20.3477 17.8718 20.1845C17.8718 20.0214 17.9268 19.8726 18.0454 19.7563C18.1664 19.6376 18.3192 19.5783 18.49 19.5783C18.6019 19.5783 18.7112 19.5512 18.8202 19.4939C18.931 19.4306 19.0213 19.3499 19.0931 19.2509C19.1586 19.1558 19.1916 19.0505 19.1916 18.9294C19.1916 18.7561 19.1301 18.6172 19.002 18.4994C18.8759 18.3834 18.7112 18.3198 18.49 18.3198C18.3164 18.3198 18.1609 18.353 18.0206 18.4173C17.8839 18.4823 17.7788 18.5662 17.6998 18.6672C17.6306 18.7621 17.5965 18.8658 17.5965 18.9844C17.5965 19.1462 17.5488 19.2957 17.4455 19.4204L17.4412 19.4254C17.3316 19.5494 17.1853 19.6142 17.0182 19.6142C16.8586 19.6142 16.7178 19.554 16.6056 19.4439L16.6004 19.4388L16.5954 19.4331C16.4893 19.3131 16.44 19.1667 16.44 19.0078C16.4401 18.6668 16.5306 18.3553 16.7141 18.0793C16.8951 17.8071 17.142 17.5955 17.4492 17.4442C17.7592 17.2864 18.1022 17.2091 18.474 17.2091C18.8206 17.2091 19.1389 17.2843 19.4236 17.4388L19.4235 17.439C19.7077 17.5851 19.9342 17.7882 20.098 18.0481L20.1294 18.0973C20.2814 18.3459 20.356 18.6251 20.356 18.9294C20.356 19.1663 20.2999 19.3843 20.1821 19.5768L20.182 19.5767C20.0787 19.7542 19.9453 19.9085 19.7826 20.0385L19.7789 20.0414C19.7394 20.0715 19.6992 20.1003 19.6585 20.128C19.7945 20.2017 19.9163 20.2871 20.023 20.3849C20.2226 20.5628 20.3704 20.773 20.4626 21.0142C20.5576 21.2487 20.604 21.5011 20.604 21.7691C20.604 22.1459 20.5058 22.4906 20.3073 22.7975L20.3062 22.7991Z" fill="#0D0D0D"/>
<path fill-rule="evenodd" clip-rule="evenodd" d="M23.5742 17.217C24.0567 17.217 24.5004 17.2968 24.9024 17.4601L24.9023 17.4603C25.3061 17.617 25.6581 17.8441 25.9559 18.1417C26.2536 18.4341 26.482 18.7794 26.6412 19.1754C26.8014 19.5737 26.8799 20.0103 26.8799 20.4827C26.8799 20.9551 26.8014 21.394 26.6416 21.7969L26.6412 21.7978C26.4819 22.1941 26.2534 22.5419 25.9559 22.8393L25.9552 22.84L25.9544 22.8406C25.6565 23.1328 25.3048 23.3597 24.9015 23.5212L24.9 23.5218C24.4987 23.6792 24.0558 23.7562 23.5742 23.7562H22.1265C21.9557 23.7562 21.8028 23.6968 21.6818 23.5781C21.5608 23.4594 21.5001 23.3095 21.5001 23.1421V17.8312C21.5001 17.6637 21.5575 17.5117 21.6818 17.3951C21.8028 17.2765 21.9557 17.217 22.1265 17.217H23.5742ZM25.3896 19.3664C25.5673 19.682 25.6594 20.052 25.6594 20.4827C25.6594 20.9071 25.5677 21.2774 25.3896 21.5989C25.2101 21.9178 24.9641 22.1681 24.6497 22.3532C24.3451 22.5303 23.9889 22.622 23.5742 22.622H22.7527V18.3511H23.5742C23.9893 18.3511 24.3459 18.443 24.6506 18.6204L24.6518 18.6211C24.9651 18.8008 25.2103 19.048 25.3896 19.3664Z" fill="#0D0D0D"/>
</svg>
