<svg xmlns="http://www.w3.org/2000/svg" id="_&#x421;&#x43B;&#x43E;&#x439;_1" data-name="&#x421;&#x43B;&#x43E;&#x439; 1" viewBox="0 0 1000 1000"><defs><style>      .cls-1 {        fill: #212121;      }    </style></defs><circle class="cls-1" cx="413.79" cy="246.37" r="85.25" transform="translate(-53.01 364.75) rotate(-45)"></circle><path class="cls-1" d="M209.18,619.35c-22.5,0-43.55-6.23-61.51-17.05-8.7-5.24-16.67-11.56-23.74-18.77v170.1c0,17.22,5.11,33.25,13.89,46.65,15.23,23.25,41.5,38.6,71.37,38.6s56.14-15.36,71.37-38.6c8.78-13.4,13.89-29.43,13.89-46.65v-49.02c0-47.09-38.17-85.26-85.25-85.26Z"></path><path class="cls-1" d="M328.54,440.38c-7.01-3.17-14.17-6.07-21.47-8.69-4.17-1.5-8.38-2.9-12.63-4.2-26.95-8.28-55.58-12.74-85.25-12.74-47.08,0-85.25,38.17-85.25,85.25s38.17,85.25,85.25,85.25c22.5,0,43.55,6.23,61.51,17.05,8.7,5.24,16.67,11.56,23.74,18.77,21.1,21.53,34.1,51.01,34.1,83.53v49.02c0,47.09,38.2,85.26,85.28,85.26h.05s.12,0,.12,0l.55-.02c.49-.01,1.15-.03,1.81-.05h.07c1.19-.03,2.35-.07,2.4-.07,25.01-1.46,47.12-13.69,61.76-32.13,11.55-14.55,18.46-32.96,18.46-52.98v-49.02c0-117.54-69.96-218.74-170.51-264.23Z"></path><path class="cls-1" d="M209.18,380.64c4.24,0,8.43.22,12.56.65,25.06.92,49.4,4.7,72.69,11.01v-145.94c0-47.08-38.17-85.25-85.25-85.25s-85.25,38.17-85.25,85.25v170.1c18.8-19.19,44.03-32.05,72.2-35.12,4.29-.47,8.64-.71,13.06-.71Z"></path><path class="cls-1" d="M869.4,708.2c-4.18-10.61-10.07-19.94-17.67-27.94l-1.55-1.58c-8.32-8.47-18.15-14.94-29.44-19.41h0c-11.25-4.66-23.67-6.94-37.17-6.94h-40.51c-4.71,0-8.93,1.65-12.3,4.94h0s-.06.05-.08.08c-.02.02-.04.03-.06.05h0c-3.48,3.33-5.08,7.67-5.08,12.45v151.52c0,4.78,1.7,9.05,5.08,12.44,3.39,3.39,7.66,5.08,12.44,5.08h40.51c13.48,0,25.87-2.19,37.1-6.69l.03-.02c11.29-4.61,21.13-11.08,29.47-19.42l.02-.02.02-.02c8.33-8.48,14.73-18.41,19.18-29.71v-.03c4.48-11.5,6.68-24.02,6.68-37.5s-2.2-25.93-6.68-37.3ZM813.69,798.85c-8.53,5.06-18.5,7.68-30.12,7.68h-22.99v-121.84h22.99c11.62,0,21.59,2.62,30.12,7.68l.03.02c8.77,5.12,15.63,12.18,20.65,21.26,4.97,9,7.55,19.56,7.55,31.85s-2.56,22.67-7.55,31.85c-5.02,9.09-11.89,16.23-20.68,21.51Z"></path><path class="cls-1" d="M696.46,760.54c-2.57-6.8-6.67-12.73-12.18-17.77h0c-3-2.82-6.44-5.28-10.27-7.4,1.14-.79,2.26-1.61,3.37-2.46l.05-.04.05-.05c4.59-3.74,8.35-8.18,11.25-13.3h0c3.24-5.46,4.79-11.63,4.8-18.34,0-9.21-2.35-17.6-7.14-25.02h0c-4.59-7.48-10.95-13.32-18.96-17.51h0c-7.97-4.41-16.87-6.56-26.57-6.56-10.37,0-19.94,2.19-28.59,6.67l-1.6.83c-7.9,4.25-14.29,10.03-19.05,17.33-5.14,7.88-7.67,16.77-7.67,26.5,0,4.53,1.38,8.71,4.35,12.13l.13.16.15.15c3.14,3.14,7.08,4.86,11.55,4.86s8.76-1.85,11.83-5.39l.06-.07.06-.07c2.89-3.56,4.23-7.83,4.23-12.44,0-3.38.95-6.34,2.88-9.04,2.21-2.89,5.16-5.28,8.99-7.13,3.92-1.83,8.28-2.78,13.13-2.78,6.19,0,10.8,1.81,14.33,5.12,3.58,3.36,5.3,7.33,5.3,12.27,0,3.45-.92,6.45-2.74,9.16-2.02,2.84-4.56,5.15-7.68,6.96-3.04,1.62-6.08,2.39-9.21,2.39-4.78,0-9.06,1.7-12.45,5.08-3.32,3.32-4.85,7.56-4.85,12.22s1.53,8.89,4.72,12.3l.07.07.07.07c3.39,3.39,7.66,5.08,12.45,5.08s8.86,1.2,12.48,3.54c3.74,2.41,6.72,5.67,8.96,9.89l.02.03.02.03c2.16,3.96,3.31,8.57,3.31,13.97,0,8.53-2.59,14.49-7.23,18.68-4.65,4.19-11.05,6.55-19.78,6.55-5.78,0-10.8-1.27-15.21-3.7-4.54-2.66-8.05-6.06-10.64-10.24-2.58-4.3-3.86-8.92-3.86-13.97,0-4.53-1.3-8.76-4.35-12.13h0c-3.07-3.54-7.16-5.39-11.83-5.39s-8.59,1.9-11.69,5.23h-.01c-3.15,3.4-4.48,7.7-4.48,12.29,0,11.15,2.72,21.38,8.23,30.56l.03.04c5.48,8.97,13.04,16.09,22.54,21.33l.07.04c9.62,5.14,20.52,7.63,32.54,7.63,10.74,0,20.72-2.37,29.83-7.17l.04-.02.03-.02c9.04-4.93,16.34-11.64,21.82-20.1l.03-.04c5.55-8.76,8.3-18.59,8.3-29.34,0-7.21-1.15-14.03-3.51-20.4l-.49-1.26Z"></path></svg>